<?xml version="1.0" standalone="no"?><!DOCTYPE svg PUBLIC "-//W3C//DTD SVG 1.1//EN" "http://www.w3.org/Graphics/SVG/1.1/DTD/svg11.dtd"><svg t="1729983126606" class="icon" viewBox="0 0 2161 1024" version="1.1" xmlns="http://www.w3.org/2000/svg" p-id="15512" width="101.296875" height="48" xmlns:xlink="http://www.w3.org/1999/xlink"><path d="M491.732691 54.636966h1147.376278a437.095725 437.095725 0 0 1 437.095725 437.095725 437.095725 437.095725 0 0 1-437.095725 437.095725H491.732691a437.095725 437.095725 0 0 1-437.095725-437.095725 437.095725 437.095725 0 0 1 437.095725-437.095725z" fill="#FE2042" p-id="15513"></path><path d="M738.691775 535.988633l-46.44142 20.215677v149.158916a48.08053 48.08053 0 0 1-54.636966 54.636966h-49.173269l-12.020132-49.719639a290.668657 290.668657 0 0 0 42.616833 3.278218c14.205611 0 21.308417-6.556436 21.308416-19.122938v-118.562215c-20.762047 7.102806-42.070464 13.659241-62.83251 19.669308l-13.112872-54.636966c25.679374-5.463697 50.812378-12.020132 75.945382-19.669308V408.684503h-65.564358v-50.266008h65.564358V262.257435h51.905118v96.16106h50.812378v50.266008h-50.812378v95.61469c15.84472-6.556436 31.14307-13.659241 46.44142-21.308417zM833.760096 764.917519h-51.358748V461.13599c-10.927393 15.84472-22.947526 31.14307-35.514028 46.441421l-17.483829-54.636966A534.349524 534.349524 0 0 0 819.554485 263.350174l50.266008 9.834654a608.655797 608.655797 0 0 1-27.864852 78.677231H928.828416c-8.741915-26.225744-18.576568-54.636966-29.503962-77.584491l49.719639-13.112872a878.562408 878.562408 0 0 1 28.411222 90.697363h83.594558v49.719638h-91.243733V464.414208h77.584491v48.626899h-77.584491v60.647032h77.584491v48.08053h-77.584491v67.749837h94.521951v49.719639h-230.567995z m0-362.243082V464.414208h84.687296V401.581697z m0 172.106442h84.687296V513.041107h-84.687296z m0 115.830367h84.687296v-68.842577h-84.687296zM1287.79328 411.416351c6.010066-12.566502 11.473763-25.133004 16.39109-37.153136l50.266008 8.741914c-3.278218 9.834654-7.102806 19.122938-10.927393 28.411222h257.886478v47.53416h-281.380373a529.978567 529.978567 0 0 1-57.368814 79.223601v229.475255h-49.719639v-180.848356a646.355304 646.355304 0 0 1-64.471619 49.173269l-32.78218-42.616833a502.113714 502.113714 0 0 0 143.69522-134.406936h-123.479542v-47.53416z m-40.431354-114.191258v-34.421288h54.636965v34.421288h132.221457v-34.421288h54.636966v34.421288h120.201324v47.53416h-120.201324V382.458759h-54.636966v-37.699506h-134.406935V382.458759h-54.636966v-37.699506h-120.201324v-47.53416z m248.598193 240.949019h-163.910897V491.732691h238.217171v37.153136c-22.947526 18.030199-49.719639 37.699506-79.223601 59.554293V601.006622h114.191259v49.173269h-114.191259v67.749838a43.163203 43.163203 0 0 1-48.626899 48.626899h-66.110728l-15.298351-50.266008q38.245876 3.278218 60.647032 3.278218a14.751981 14.751981 0 0 0 16.937459-16.39109v-54.636966h-144.787959V601.006622h144.787959v-26.225743z" fill="#FFFFFF" p-id="15514"></path></svg>